<svg xmlns="http://www.w3.org/2000/svg" xmlns:xlink="http://www.w3.org/1999/xlink" width="100" zoomAndPan="magnify" viewBox="0 0 75 74.999997" height="100" preserveAspectRatio="xMidYMid meet" version="1.2"><defs><clipPath id="59e63bc24c"><path d="M 3 16 L 29 16 L 29 42 L 3 42 Z M 3 16 "/></clipPath><clipPath id="3c5f629804"><path d="M 8.402344 47.359375 L -10.109375 29.824219 L 15.679688 2.597656 L 34.191406 20.132812 Z M 8.402344 47.359375 "/></clipPath><clipPath id="cae5049fe6"><path d="M 8.402344 47.359375 L -10.109375 29.824219 L 15.679688 2.597656 L 34.191406 20.132812 Z M 8.402344 47.359375 "/></clipPath></defs><g id="0d1ece5f4d"><rect x="0" width="75" y="0" height="74.999997" style="fill:#ffffff;fill-opacity:1;stroke:none;"/><rect x="0" width="75" y="0" height="74.999997" style="fill:#ffffff;fill-opacity:1;stroke:none;"/><g style="fill:#242424;fill-opacity:1;"><g transform="translate(12.130658, 59.647327)"><path style="stroke:none" d="M 26.421875 -5.078125 C 27.304688 -5.078125 27.992188 -4.796875 28.484375 -4.234375 C 28.972656 -3.671875 29.21875 -3.070312 29.21875 -2.4375 C 29.21875 -1.820312 28.988281 -1.257812 28.53125 -0.75 C 28.070312 -0.25 27.367188 0 26.421875 0 L 6.296875 0 C 5.273438 0 4.457031 -0.296875 3.84375 -0.890625 C 3.238281 -1.484375 2.9375 -2.203125 2.9375 -3.046875 L 2.9375 -29.3125 C 2.9375 -30.125 3.238281 -30.828125 3.84375 -31.421875 C 4.457031 -32.015625 5.273438 -32.3125 6.296875 -32.3125 L 26.421875 -32.3125 C 27.335938 -32.3125 28.015625 -32.066406 28.453125 -31.578125 C 28.890625 -31.085938 29.109375 -30.519531 29.109375 -29.875 C 29.109375 -29.257812 28.878906 -28.679688 28.421875 -28.140625 C 27.972656 -27.609375 27.304688 -27.34375 26.421875 -27.34375 L 8.71875 -27.34375 L 8.71875 -18.46875 L 25.515625 -18.46875 C 26.390625 -18.46875 27.046875 -18.203125 27.484375 -17.671875 C 27.929688 -17.148438 28.15625 -16.566406 28.15625 -15.921875 C 28.15625 -15.316406 27.929688 -14.757812 27.484375 -14.25 C 27.046875 -13.738281 26.390625 -13.484375 25.515625 -13.484375 L 8.71875 -13.484375 L 8.71875 -5.078125 Z M 26.421875 -5.078125 "/></g></g><g style="fill:#242424;fill-opacity:1;"><g transform="translate(42.613229, 59.647327)"><path style="stroke:none" d="M 8.78125 -8.984375 L 8.78125 -2.59375 C 8.78125 -1.707031 8.460938 -1.050781 7.828125 -0.625 C 7.203125 -0.207031 6.535156 0 5.828125 0 C 5.085938 0 4.421875 -0.207031 3.828125 -0.625 C 3.234375 -1.050781 2.9375 -1.6875 2.9375 -2.53125 L 2.9375 -29.671875 C 2.9375 -30.453125 3.222656 -31.085938 3.796875 -31.578125 C 4.378906 -32.066406 5.078125 -32.3125 5.890625 -32.3125 L 16.234375 -32.3125 C 19.035156 -32.3125 21.429688 -31.8125 23.421875 -30.8125 C 25.421875 -29.8125 26.941406 -28.421875 27.984375 -26.640625 C 29.035156 -24.867188 29.5625 -22.785156 29.5625 -20.390625 C 29.5625 -16.972656 28.378906 -14.21875 26.015625 -12.125 C 23.648438 -10.03125 20.335938 -8.984375 16.078125 -8.984375 Z M 8.78125 -27.28125 L 8.78125 -14 L 16.078125 -14 C 18.578125 -14 20.484375 -14.582031 21.796875 -15.75 C 23.117188 -16.914062 23.78125 -18.460938 23.78125 -20.390625 C 23.78125 -22.484375 23.128906 -24.15625 21.828125 -25.40625 C 20.523438 -26.65625 18.675781 -27.28125 16.28125 -27.28125 Z M 8.78125 -27.28125 "/></g></g><g clip-rule="nonzero" clip-path="url(#59e63bc24c)"><g clip-rule="nonzero" clip-path="url(#3c5f629804)"><g clip-rule="nonzero" clip-path="url(#cae5049fe6)"><path style=" stroke:none;fill-rule:nonzero;fill:#00bf63;fill-opacity:1;" d="M 3.273438 16.304688 L 3.765625 38.722656 C 3.863281 43.054688 12.320312 43.222656 12.117188 38.097656 L 11.570312 24.164062 L 25.636719 24.296875 C 29.917969 24.335938 29.816406 15.992188 25.46875 16.042969 Z M 3.273438 16.304688 "/></g></g></g></g></svg>